<svg xmlns="http://www.w3.org/2000/svg" width="900" height="360" viewBox="0 0 900 360">
<style><![CDATA[
text{font-family:Arial,Helvetica,sans-serif;fill:#111827}
.axis{font-size:15px;fill:#374151}
.tick{font-size:13px;fill:#6b7280}
.label{font-size:16px;font-weight:700}
.small{font-size:13px;fill:#4b5563}
.value{font-size:14px;font-weight:700}
]]></style>
<text x="15" y="45" text-anchor="start" style="font-size:16px;font-weight:700">Primary matched-success</text>
<line x1="245" y1="175" x2="895" y2="175" stroke="#d1d5db" stroke-width="1.5"/>
<line x1="245" y1="168" x2="245" y2="182" stroke="#d1d5db" stroke-width="1.5"/>
<text x="245" y="204" text-anchor="middle" class="tick">-5</text>
<line x1="385" y1="168" x2="385" y2="182" stroke="#d1d5db" stroke-width="1.5"/>
<text x="385" y="204" text-anchor="middle" class="tick">0</text>
<line x1="525" y1="168" x2="525" y2="182" stroke="#d1d5db" stroke-width="1.5"/>
<text x="525" y="204" text-anchor="middle" class="tick">5</text>
<line x1="665" y1="168" x2="665" y2="182" stroke="#d1d5db" stroke-width="1.5"/>
<text x="665" y="204" text-anchor="middle" class="tick">10</text>
<line x1="805" y1="168" x2="805" y2="182" stroke="#d1d5db" stroke-width="1.5"/>
<text x="805" y="204" text-anchor="middle" class="tick">15</text>
<line x1="945" y1="168" x2="945" y2="182" stroke="#d1d5db" stroke-width="1.5"/>
<text x="945" y="204" text-anchor="middle" class="tick">20</text>
<line x1="1085" y1="168" x2="1085" y2="182" stroke="#d1d5db" stroke-width="1.5"/>
<text x="1085" y="204" text-anchor="middle" class="tick">25</text>
<line x1="385" y1="35" x2="895" y2="212" stroke="#1f2937" stroke-width="1.7" stroke-dasharray="5 5"/>
<text x="95" y="70" text-anchor="end" style="font-size:15px;font-weight:700;fill:#0f766e">Masking</text>
<line x1="479.08" y1="65" x2="621.88" y2="65" stroke="#111827" stroke-width="2.5"/>
<circle cx="552.16" cy="65" r="7" fill="#0f766e" stroke="white" stroke-width="2" opacity="1.0"/>
<text x="755" y="70" text-anchor="start" style="font-size:14px">+5.97 [3.36, 8.46], n=47</text>
<text x="95" y="125" text-anchor="end" style="font-size:15px;font-weight:700;fill:#f97316">Dropout</text>
<line x1="444.08" y1="120" x2="581.84" y2="120" stroke="#111827" stroke-width="2.5"/>
<circle cx="518.56" cy="120" r="7" fill="#f97316" stroke="white" stroke-width="2" opacity="1.0"/>
<text x="755" y="125" text-anchor="start" style="font-size:14px">+4.77 [2.11, 7.03], n=40</text>
<text x="15" y="245" text-anchor="start" style="font-size:16px;font-weight:700;fill:#6b7280">Sensitivity: all-pair/capped</text>
<text x="95" y="295" text-anchor="end" style="font-size:14px;font-weight:700;fill:#0f766e">Masking</text>
<line x1="379.4" y1="290" x2="1054.1999999999998" y2="290" stroke="#6b7280" stroke-width="2"/>
<circle cx="642.88" cy="290" r="6" fill="#0f766e" stroke="white" stroke-width="2" opacity="1.0"/>
<text x="755" y="295" text-anchor="start" style="font-size:13px;fill:#6b7280">+9.21 [-0.20, 23.90]</text>
<text x="95" y="337" text-anchor="end" style="font-size:14px;font-weight:700;fill:#f97316">Dropout</text>
<line x1="315.0" y1="332" x2="931.0" y2="332" stroke="#6b7280" stroke-width="2"/>
<circle cx="565.04" cy="332" r="6" fill="#f97316" stroke="white" stroke-width="2" opacity="1.0"/>
<text x="755" y="337" text-anchor="start" style="font-size:13px;fill:#6b7280">+6.43 [-2.50, 19.50]</text>
<text x="565" y="230" text-anchor="middle" class="axis">fault-minus-baseline completion time (s)</text>
</svg>
